<svg xmlns="http://www.w3.org/2000/svg" width="28" height="28" viewBox="0 0 24 24">
    <path data-name="패스 14208" d="M0 0h24v24H0z" style="fill:none"/>
    <path data-name="패스 14209" d="M12 3a1 1 0 0 0-1 1v8a1 1 0 0 0 2 0V4a1 1 0 0 0-1-1zm5.14 2.86a.99.99 0 0 0-.01 1.39A6.864 6.864 0 0 1 19 11.82a7.084 7.084 0 0 1-6.91 7.17A6.991 6.991 0 0 1 6.87 7.24a.99.99 0 1 0-1.44-1.36A8.919 8.919 0 0 0 3 11.74a9.1 9.1 0 0 0 8.71 9.25 9 9 0 0 0 9.29-9 8.891 8.891 0 0 0-2.42-6.11 1 1 0 0 0-1.44-.02z" style="fill:#ffffff"/>
</svg>
