<svg xmlns="http://www.w3.org/2000/svg" width="24" height="24" viewBox="0 0 24 24">
    <defs>
        <clipPath id="7fn6ic647a">
            <path data-name="사각형 37177" style="fill:#3d5ffc" d="M0 0h13.765v18H0z"/>
        </clipPath>
    </defs>
    <g data-name="그룹 38183">
        <g data-name="그룹 38119">
            <g data-name="그룹 38118" style="clip-path:url(#7fn6ic647a)" transform="translate(5 3)">
                <path data-name="패스 14212" d="M6.882 0A6.953 6.953 0 0 0 0 7.007a8.784 8.784 0 0 0 .533 3.033c.858 2.771 4.451 6.3 5.631 7.461l.254.253a.325.325 0 0 0 .245.2.53.53 0 0 0 .219.046c.02 0 .039-.01.059-.012a.513.513 0 0 0 .374-.177.4.4 0 0 0 .031-.058c.061-.062.141-.141.257-.255 1.178-1.158 4.765-4.683 5.623-7.442a8.789 8.789 0 0 0 .538-3.049A6.953 6.953 0 0 0 6.882 0m0 4.025a2.647 2.647 0 1 1-2.647 2.647 2.651 2.651 0 0 1 2.647-2.647" style="fill:#3d5ffc"/>
            </g>
        </g>
    </g>
</svg>
