<svg xmlns="http://www.w3.org/2000/svg" width="96" height="96" viewBox="0 0 96 96">
    <g data-name="그룹 38596">
        <path data-name="패스 14306" d="M54.752 67.383a109.033 109.033 0 0 0 24.936-5.989 41 41 0 0 1-10.566-27.533v-3.429a27.432 27.432 0 1 0-54.864 0v3.429a41 41 0 0 1-10.57 27.532 109.047 109.047 0 0 0 24.94 5.989m26.124 0a110.894 110.894 0 0 1-26.124 0m26.124 0a13.716 13.716 0 1 1-26.124 0" transform="translate(6.812 3.5)" style="fill:none;stroke:#7177a8;stroke-linecap:round;stroke-linejoin:round;stroke-width:6px"/>
    </g>
</svg>
