<svg xmlns="http://www.w3.org/2000/svg" width="24" height="24" viewBox="0 0 24 24">
    <path data-name="패스 407" d="M0 0h24v24H0z" style="fill:none"/>
    <path data-name="합치기 2" d="M-3280-2979a2.006 2.006 0 0 1-2-2v-10a2.005 2.005 0 0 1 2-2h1.01v-2h-.01a5 5 0 0 1 5-5 5 5 0 0 1 5 5v2h1a2.005 2.005 0 0 1 2 2v10a2.006 2.006 0 0 1-2 2zm0-2h12v-10h-12zm9.1-12v-2a3.1 3.1 0 0 0-3.1-3.1 3.1 3.1 0 0 0-3.1 3.1v2zm-5.1 7a2.006 2.006 0 0 1 2-2 2.006 2.006 0 0 1 2 2 2.006 2.006 0 0 1-2 2 2.006 2.006 0 0 1-2-2z" transform="translate(3286 3001)" style="fill:#fff"/>
</svg>
