<svg xmlns="http://www.w3.org/2000/svg" width="28" height="28" viewBox="0 0 28 28">
    <g data-name="그룹 38596">
        <path data-name="패스 14306" d="M18.47 21.637a31.562 31.562 0 0 0 7.218-1.737 11.868 11.868 0 0 1-3.059-7.97v-.993a7.941 7.941 0 1 0-15.882 0v.993a11.868 11.868 0 0 1-3.06 7.97 31.566 31.566 0 0 0 7.22 1.734m7.562 0a32.1 32.1 0 0 1-7.562 0m7.562 0a3.97 3.97 0 1 1-7.562 0" transform="translate(-.188 -.5)" style="fill:none;stroke:#fff;stroke-linecap:round;stroke-linejoin:round;stroke-width:2px"/>
    </g>
</svg>
